# AST/ASF file generated using VICON BodyLanguage
# -----------------------------------------------
:version 1.10
:name VICON
:units
  mass 1.0
  length 0.45
  angle deg
:documentation
   .ast/.asf automatically generated from VICON data using
   VICON BodyBuilder and BodyLanguage model FoxedUp or BRILLIANT.MOD
:root
   order TX TY TZ RX RY RZ
   axis XYZ
   position 0 0 0  
   orientation 0 0 0 
:bonedata
  begin
     id 1 
     name lhipjoint
     direction 0.521689 -0.742065 0.420928 
     length 2.47002 
     axis 0 0 0  XYZ
  end
  begin
     id 2 
     name lfemur
     direction 0.34202 -0.939693 0  
     length 7.24654  
     axis 0 0 20  XYZ
    dof rx ry rz
    limits (-160.0 20.0)
           (-70.0 70.0)
           (-60.0 70.0)
  end
  begin
     id 3 
     name ltibia
     direction 0.34202 -0.939693 0   
     length 8.04849   
     axis 0 0 20   XYZ
    dof rx
    limits (-10.0 170.0)
  end
  begin
     id 4 
     name lfoot
     direction 0.0745411 -0.2048 0.975961   
     length 1.72367   
     axis -90 7.62852e-016 20   XYZ
    dof rx rz
    limits (-45.0 90.0)
           (-70.0 20.0)
  end
  begin
     id 5 
     name ltoes
     direction 1.53556e-011 -4.21901e-011 1   
     length 0.87311   
     axis -90 7.62852e-016 20   XYZ
    dof rx
    limits (-90.0 20.0)
  end
  begin
     id 6 
     name rhipjoint
     direction -0.52849 -0.738415 0.418857   
     length 2.48223  
     axis 0 0 0  XYZ 
  end
  begin
     id 7 
     name rfemur
     direction -0.34202 -0.939693 0   
     length 7.15571   
     axis 0 0 -20   XYZ
    dof rx ry rz
    limits (-160.0 20.0)
           (-70.0 70.0)
           (-70.0 60.0)
  end
  begin
     id 8 
     name rtibia
     direction -0.34202 -0.939693 0   
     length 7.81659   
     axis 0 0 -20   XYZ
    dof rx
    limits (-10.0 170.0)
 end
 begin
     id 9 
     name rfoot
     direction -0.0917348 -0.252039 0.963359   
     length 1.84382  
     axis -90 -7.62852e-016 -20   XYZ
    dof rx rz
    limits (-45.0 90.0)
           (-20.0 70.0)
  end
  begin
     id 10 
     name rtoes
     direction -1.53551e-011 -4.21879e-011 1   
     length 0.927771   
     axis -90 -7.62852e-016 -20   XYZ
    dof rx
    limits (-90.0 20.0)
  end
  begin
     id 11 
     name lowerback
     direction 0.00583058 0.999822 0.0179296   
     length 2.1429   
     axis 0 0 0   XYZ
    dof rx ry rz
    limits (-20.0 45.0)
           (-30.0 30.0)
           (-30.0 30.0)
  end
  begin
     id 12 
     name upperback
     direction -0.0137999 0.999752 -0.0175071   
     length 2.14252   
     axis 0 0 0   XYZ
    dof rx ry rz
    limits (-20.0 45.0)
           (-30.0 30.0)
           (-30.0 30.0)
  end
  begin
     id 13 
     name thorax
     direction -0.0158036 0.99955 -0.0254909   
     length 2.1383   
     axis 0 0 0   XYZ
    dof rx ry rz
    limits (-20.0 45.0)
           (-30.0 30.0)
           (-30.0 30.0)
  end
  begin
     id 14 
     name lowerneck
     direction -0.0101179 0.999403 -0.0330262   
     length 1.65808   
     axis 0 0 0   XYZ
    dof rx ry rz
    limits (-20.0 45.0)
           (-30.0 30.0)
           (-30.0 30.0)
  end
  begin
     id 15 
     name upperneck
     direction 0.0497734 0.995978 -0.074501   
     length 1.5897   
     axis 0 0 0   XYZ
    dof rx ry rz
    limits (-20.0 45.0)
           (-30.0 30.0)
           (-30.0 30.0)
  end
  begin
     id 16
     name head
     direction 0.0189524 0.999519 -0.0245438  
     length 1.74024  
     axis 0 0 0   XYZ
    dof rx ry rz
    limits (-20.0 45.0)
           (-30.0 30.0)
           (-30.0 30.0)
  end
  begin
     id 17 
     name lclavicle
     direction 0.945604 0.324422 0.0241537  
     length 3.59089  
     axis 0 0 0   XYZ
    dof ry rz
    limits (-20.0 10.0)
           (0.0 20.0)
  end
  begin
     id 18 
     name lhumerus
     direction 1 -4.48964e-011 -2.63524e-027   
     length 5.2391   
     axis 180 -30 -90   XYZ
    dof rx ry rz
    limits (-60.0 90.0)
           (-90.0 90.0)
           (-90.0 90.0)
  end
  begin
     id 19
     name lradius
     direction 1 -4.48969e-011 3.86978e-028   
     length 3.31467   
     axis 180 -30 -90   XYZ
    dof rx
    limits (-10.0 170.0)
  end
  begin
     id 20
     name lwrist
     direction 1 -4.48963e-011 7.20928e-028   
     length 1.65734   
     axis -5.52449e-016 90 90   XYZ
    dof ry
    limits (-180.0 0.0)
 end
  begin
     id 21 
     name lhand
     direction 1 -4.48964e-011 1.44186e-027   
     length 0.9659   
     axis -9.20027e-016 90 90   XYZ
    dof rx rz
    limits (-90.0 90.0)
           (-45.0 45.0)
  end
  begin
     id 22 
     name lfingers
     direction 1 -4.48965e-011 2.88371e-027   
     length 0.778733   
     axis -1.84005e-015 90 90   XYZ
    dof rx
    limits (0.0 90.0)
  end
  begin
     id 23
     name lthumb
     direction 0.707107 -6.34931e-011 0.707107   
     length 1.11811   
     axis -90 45 2.85299e-015   XYZ
    dof rx rz
    limits (-45.0 45.0)
           (-45.0 45.0)
  end
  begin
     id 24 
     name rclavicle
     direction -0.923762 0.370785 0.0958234   
     length 3.54196  
     axis 0 0 0   XYZ 
    dof ry rz
    limits (-10.0 20.0)
           (-20.0 0.0)
  end
  begin
     id 25 
     name rhumerus
     direction -1 -4.48966e-011 1.18702e-017  
     length 5.30252   
     axis 180 30 90   XYZ
    dof rx ry rz
    limits (-90.0 60.0)
           (-90.0 90.0)
           (-90.0 90.0)
  end
  begin
     id 26 
     name rradius
     direction -1 -4.48966e-011 4.46736e-027   
     length 3.67875   
     axis 180 30 90   XYZ
    dof rx
    limits (-10.0 170.0)
  end
  begin
     id 27 
     name rwrist
     direction -1 -4.48966e-011 7.20928e-028   
     length 1.83937   
     axis -5.52449e-016 -90 -90   XYZ
    dof ry
    limits (-180.0 0.0)
  end
  begin
     id 28
     name rhand
     direction -1 -4.48973e-011 1.44186e-027   
     length 0.594811   
     axis -9.20027e-016 -90 -90   XYZ
    dof rx rz
    limits (-90.0 90.0)
           (-45.0 45.0)
  end
  begin
     id 29
     name rfingers
     direction -1 -4.48963e-011 2.88371e-027   
     length 0.479552   
     axis -1.84005e-015 -90 -90   XYZ
    dof rx
    limits (0.0 90.0)
  end
  begin
     id 30
     name rthumb
     direction -0.707107 -6.34932e-011 0.707107   
     length 0.688544   
     axis -90 -45 -2.85299e-015   XYZ
    dof rx rz
    limits (-45.0 45.0)
           (-45.0 45.0)
  end
:hierarchy
  begin
    root lhipjoint rhipjoint lowerback
    lhipjoint lfemur
    lfemur ltibia
    ltibia lfoot
    lfoot ltoes
    rhipjoint rfemur
    rfemur rtibia
    rtibia rfoot
    rfoot rtoes
    lowerback upperback
    upperback thorax
    thorax lowerneck lclavicle rclavicle
    lowerneck upperneck
    upperneck head
    lclavicle lhumerus
    lhumerus lradius
    lradius lwrist
    lwrist lhand lthumb
    lhand lfingers
    rclavicle rhumerus
    rhumerus rradius
    rradius rwrist
    rwrist rhand rthumb
    rhand rfingers
  end

#!OML:ASF E:\acrobat2\Project_11_07_03\Capture day 1\Session 1\Acrobat.ASF
:FULLY-SPECIFIED
:DEGREES
239
root 9.64563 17.4005 29.9329 -160.653 -2.76092 -181.249
lowerback 6.36875 0.0371984 -0.317177
upperback 5.6634 -0.421377 -0.911999
thorax 2.26411 -0.39895 -0.750643
lowerneck 1.56972 -1.58251 -2.10194
upperneck 7.0534 -2.52453 2.69739
head 2.00724 -1.35767 1.17006
rclavicle -3.08116e-015 -7.55382e-015
rhumerus 15.7973 7.65535 -66.8042
rradius 18.9781
rwrist 16.7846
rhand -9.52208 -43.7291
rfingers 7.12502
rthumb 16.4438 -73.0522
lclavicle -3.08116e-015 -7.55382e-015
lhumerus 24.1713 -17.5771 61.1507
lradius 16.1018
lwrist -0.0862798
lhand -5.53914 -8.44433
lfingers 7.12502
lthumb 20.2753 20.5174
rfemur -6.46804 19.5112 -5.36086
rtibia -3.37955
rfoot -44.5426 -32.6457
rtoes 23.7085
lfemur -10.1582 -7.37631 3.69483
ltibia -2.36725
lfoot -36.3531 -3.48113
ltoes 49.888
240
root 9.63728 17.4019 29.957 -159.56 -2.63351 -181.308
lowerback 6.79724 -0.091946 -0.435645
upperback 5.74078 -0.625294 -0.870074
thorax 2.10639 -0.514663 -0.628879
lowerneck 1.83485 -1.35448 -2.13274
upperneck 6.58019 -2.18829 2.60357
head 1.79713 -1.18796 1.15097
rclavicle -3.67752e-015 -4.17448e-015
rhumerus 17.3863 8.79035 -65.9978
rradius 19.3741
rwrist 15.9362
rhand -10.0139 -43.9298
rfingers 7.12502
rthumb 15.9702 -73.2915
lclavicle -3.67752e-015 -4.17448e-015
lhumerus 25.4508 -16.3755 60.7166
lradius 16.0985
lwrist -0.370892
lhand -5.10393 -8.65709
lfingers 7.12502
lthumb 20.6936 20.2597
rfemur -8.07686 18.6667 -6.09998
rtibia -2.96365
rfoot -43.897 -32.5658
rtoes 23.4785
lfemur -11.5799 -6.58604 3.77648
ltibia -1.94461
lfoot -36.1874 -3.45392
ltoes 49.7358
241
root 9.63545 17.4042 29.9781 -158.51 -2.57928 -181.319
lowerback 7.29539 -0.00443263 -0.132275
upperback 5.86399 -0.526217 -1.01256
thorax 1.95722 -0.465128 -0.947506
lowerneck 2.11963 -1.45914 -2.06475
upperneck 6.02418 -2.3084 2.80287
head 1.57501 -1.23703 1.20279
rclavicle -4.57205e-015 6.4605e-015
rhumerus 18.6107 8.78488 -65.3623
rradius 19.7763
rwrist 15.3226
rhand -10.1531 -44.1957
rfingers 7.12502
rthumb 15.8363 -73.568
lclavicle -4.57205e-015 6.4605e-015
lhumerus 27.3152 -16.3928 59.8438
lradius 16.1173
lwrist -0.0825607
lhand -5.31542 -8.35309
lfingers 7.12502
lthumb 20.4903 20.5857
rfemur -9.54179 18.1538 -6.68351
rtibia -2.62235
rfoot -43.7693 -32.397
rtoes 23.6894
lfemur -12.9883 -5.70586 3.91638
ltibia -1.47159
lfoot -35.8886 -3.53385
ltoes 49.7522
242
root 9.64342 17.4143 29.98 -157.819 -3.03086 -181.652
lowerback 8.30926 -0.0394767 -0.0167072
upperback 5.90735 -0.605381 -1.08978
thorax 1.44144 -0.514236 -1.07805
lowerneck 2.78907 -1.58485 -2.16762
upperneck 5.45573 -2.47745 3.06451
head 1.29085 -1.32286 1.30708
rclavicle 1.33186e-014 1.21259e-014
rhumerus 19.5599 8.42033 -64.7604
rradius 20.0593
rwrist 15.3504
rhand -10.0968 -44.5717
rfingers 7.12502
rthumb 15.8905 -73.9397
lclavicle 1.33186e-014 1.21259e-014
lhumerus 29.1241 -17.6002 58.4549
lradius 16.1337
lwrist 1.38018
lhand -6.45429 -7.90537
lfingers 7.12502
lthumb 19.3956 21.1473
rfemur -9.89909 18.5 -7.1646
rtibia -2.82606
rfoot -45.0157 -32.5658
rtoes 24.4863
lfemur -14.2108 -4.568 3.64832
ltibia -0.887213
lfoot -34.6045 -3.72064
ltoes 49.8768
243
root 9.63911 17.4121 29.9965 -156.596 -2.9919 -181.695
lowerback 8.75452 0.0609463 0.206563
upperback 5.94644 -0.475633 -1.15558
thorax 1.23918 -0.448708 -1.27722
lowerneck 3.06508 -1.69996 -2.24347
upperneck 4.99097 -2.61906 3.31649
head 1.1077 -1.38948 1.40272
rclavicle -1.21259e-014 -3.18055e-015
rhumerus 20.9254 8.19413 -63.9746
rradius 20.2411
rwrist 15.1041
rhand -11.2849 -43.9763
rfingers 7.12502
rthumb 14.7461 -73.4318
lclavicle -1.21259e-014 -3.18055e-015
lhumerus 30.6354 -16.3539 58.7714
lradius 16.1067
lwrist 0.207067
lhand -5.76929 -8.53264
lfingers 7.12502
lthumb 20.0541 20.4524
rfemur -11.566 17.4075 -7.82053
rtibia -2.34833
rfoot -44.3858 -32.3344
rtoes 24.1205
lfemur -15.8692 -3.3238 3.63611
ltibia -0.20765
lfoot -33.9388 -4.02175
ltoes 49.8103
244
root 9.63288 17.4087 30.0178 -155.285 -2.98003 -181.686
lowerback 9.26856 0.17395 0.45303
upperback 5.93446 -0.319393 -1.16955
thorax 0.949127 -0.368486 -1.43906
lowerneck 3.21105 -1.86781 -2.19568
upperneck 4.60038 -2.82029 3.39313
head 0.967496 -1.48431 1.42074
rclavicle 1.58779e-014 -3.32964e-015
rhumerus 22.1402 8.49238 -62.8166
rradius 20.639
rwrist 13.7121
rhand -12.7214 -43.5239
rfingers 7.12502
rthumb 13.3618 -73.0755
lclavicle 1.58779e-014 -3.32964e-015
lhumerus 32.2522 -16.0153 58.4975
lradius 16.2488
lwrist -0.0253917
lhand -5.97852 -8.65031
lfingers 7.12502
lthumb 19.853 20.3557
rfemur -13.4403 15.9978 -8.39892
rtibia -1.64549
rfoot -43.6266 -32
rtoes 23.8665
lfemur -17.7725 -1.8744 3.61269
ltibia 0.700637
lfoot -33.1236 -4.28617
ltoes 49.7037
245
root 9.62841 17.4086 30.0318 -154.135 -3.1092 -181.864
lowerback 9.86611 0.203693 0.596
upperback 6.05553 -0.30142 -1.20326
thorax 0.749822 -0.36847 -1.55404
lowerneck 3.32607 -1.96904 -2.10336
upperneck 4.06509 -2.91662 3.38343
head 0.782525 -1.5248 1.40461
rclavicle 7.84578e-015 2.67117e-016
rhumerus 23.4989 7.9477 -62.0776
rradius 20.9961
rwrist 13.9242
rhand -11.8147 -44.716
rfingers 7.12502
rthumb 14.2356 -74.2081
lclavicle 7.84578e-015 2.67117e-016
lhumerus 34.0702 -16.0785 57.6558
lradius 16.398
lwrist 0.386668
lhand -6.87402 -8.35085
lfingers 7.12502
lthumb 18.992 20.7419
rfemur -14.9141 14.4781 -8.94778
rtibia -1.01468
rfoot -42.8538 -31.8497
rtoes 23.2691
lfemur -19.6192 -0.319343 3.25615
ltibia 1.73823
lfoot -31.9679 -4.24002
ltoes 49.7312
246
root 9.62346 17.4051 30.044 -152.936 -3.24956 -181.847
lowerback 10.4316 0.18915 0.965228
upperback 6.18567 -0.321499 -1.22671
thorax 0.577886 -0.381699 -1.78277
lowerneck 3.34758 -1.98563 -2.03051
upperneck 3.48221 -2.8977 3.44511
head 0.597494 -1.50694 1.41439
rclavicle -1.13494e-014 -1.95679e-015
rhumerus 24.9438 7.70844 -61.3113
rradius 21.3088
rwrist 13.7014
rhand -11.7462 -44.9165
rfingers 7.12502
rthumb 14.3015 -74.404
lclavicle -1.13494e-014 -1.95679e-015
lhumerus 35.8498 -15.917 56.7279
lradius 16.6195
lwrist 0.921741
lhand -8.15284 -7.91401
lfingers 7.12502
lthumb 17.7618 21.2948
rfemur -16.4568 12.9914 -9.25844
rtibia -0.404293
rfoot -42.0852 -31.7082
rtoes 22.4406
lfemur -21.5216 1.36722 3.08011
ltibia 2.83972
lfoot -30.8383 -4.19051
ltoes 49.6613
247
root 9.61961 17.4008 30.0593 -151.699 -3.34398 -181.758
lowerback 10.8896 0.228548 1.35609
upperback 6.42736 -0.278431 -1.2254
thorax 0.585313 -0.366356 -2.00602
lowerneck 3.16018 -2.03943 -1.86469
upperneck 2.84598 -2.91575 3.43393
head 0.429908 -1.50393 1.38339
rclavicle 8.39865e-015 7.70291e-015
rhumerus 26.5456 7.51653 -60.3404
rradius 21.6493
rwrist 13.0991
rhand -12.3106 -44.8768
rfingers 7.12502
rthumb 13.7577 -74.4019
lclavicle 8.39865e-015 7.70291e-015
lhumerus 37.8238 -15.3685 56.1025
lradius 16.6733
lwrist 1.14332
lhand -9.40336 -7.7833
lfingers 7.12502
lthumb 16.5581 21.5303
rfemur -18.1194 11.6696 -9.52294
rtibia 0.22772
rfoot -41.533 -31.4747
rtoes 22.0069
lfemur -23.5139 3.13997 2.92351
ltibia 4.04316
lfoot -29.7229 -4.16712
ltoes 49.4807
248
root 9.62411 17.3983 30.0715 -150.493 -3.49872 -181.975
lowerback 11.7663 0.206691 1.43782
upperback 6.47861 -0.325504 -1.26824
thorax 0.163342 -0.403442 -2.08847
lowerneck 2.95183 -2.13065 -1.73101
upperneck 2.51084 -3.00717 3.47346
head 0.362468 -1.54181 1.3726
rclavicle 5.56597e-015 -3.32964e-015
rhumerus 27.8573 7.42895 -59.3603
rradius 22.0691
rwrist 12.3163
rhand -12.6575 -45.3415
rfingers 7.12502
rthumb 13.4233 -74.889
lclavicle 5.56597e-015 -3.32964e-015
lhumerus 39.4989 -14.7684 55.7685
lradius 16.663
lwrist 0.937638
lhand -9.01078 -8.35405
lfingers 7.12502
lthumb 16.9361 20.9275
rfemur -19.6053 9.8976 -9.92922
rtibia 0.928835
rfoot -40.5761 -31.2517
rtoes 21.0666
lfemur -25.6418 5.05581 2.21814
ltibia 5.41122
lfoot -28.2964 -4.04449
ltoes 49.3313
